<svg xmlns="http://www.w3.org/2000/svg" width="2237" height="517" viewBox="0 0 2237 517" fill="none">
    <path fill-rule="evenodd" clip-rule="evenodd" d="M441.415 0V95.8824H279.457V516.29H161.958V95.8824H0V0H441.415ZM645.395 309.277L776.949 309.277C799.424 426.625 897.648 515.625 1014.48 515.625L1431.25 515.625C1564.53 515.625 1673.62 399.785 1673.62 258.145C1673.62 116.556 1564.58 0.663921 1431.25 0.663916L1014.48 0.663879C897.648 0.663874 799.424 89.6637 776.949 207.012L645.395 207.012V0H532.659V516.29H645.395V309.277ZM1770.18 0H1882.92V194.715H2124.26V0H2237V516.29H2124.26V290.598H1882.92V516.29H1770.18V258.145V0ZM1024.27 424.597C938.093 424.597 867.584 349.693 867.584 258.145C867.584 166.596 938.093 91.6924 1024.27 91.6924L1421.45 91.6924C1507.63 91.6925 1578.14 166.596 1578.14 258.145C1578.14 349.693 1507.63 424.597 1421.45 424.597L1024.27 424.597Z" fill="#e80459"/>
</svg>